HIERARCHY
ROOT Hips
{
	OFFSET -0.001795 -0.223333 0.028219
	CHANNELS 6 Xposition Yposition Zposition Zrotation Yrotation Xrotation 
	JOINT LeftUpLeg
	{
		OFFSET 0.069520 -0.091406 -0.006815
		CHANNELS 3 Zrotation Yrotation Xrotation
		JOINT LeftLeg
		{
			OFFSET 0.034277 -0.375199 -0.004496
			CHANNELS 3 Zrotation Yrotation Xrotation
			JOINT LeftFoot
			{
				OFFSET -0.013596 -0.397961 -0.043693
				CHANNELS 3 Zrotation Yrotation Xrotation
				JOINT LeftToe
				{
					OFFSET 0.026358 -0.055791 0.119288
					CHANNELS 3 Zrotation Yrotation Xrotation
					End Site
					{
						OFFSET 0.000000 0.000000 0.000000
					}
				}
			}
		}
	}
	JOINT RightUpLeg
	{
		OFFSET -0.067670 -0.090522 -0.004320
		CHANNELS 3 Zrotation Yrotation Xrotation
		JOINT RightLeg
		{
			OFFSET -0.038290 -0.382569 -0.008850
			CHANNELS 3 Zrotation Yrotation Xrotation
			JOINT RightFoot
			{
				OFFSET 0.015774 -0.398415 -0.042312
				CHANNELS 3 Zrotation Yrotation Xrotation
				JOINT RightToe
				{
					OFFSET -0.025372 -0.048144 0.123348
					CHANNELS 3 Zrotation Yrotation Xrotation
					End Site
					{
						OFFSET 0.000000 0.000000 0.000000
					}
				}
			}
		}
	}
	JOINT Spine
	{
		OFFSET -0.002533 0.108963 -0.026696
		CHANNELS 3 Zrotation Yrotation Xrotation
		JOINT Spine1
		{
			OFFSET 0.005487 0.135180 0.001092
			CHANNELS 3 Zrotation Yrotation Xrotation
			JOINT Spine2
			{
				OFFSET 0.001457 0.052922 0.025425
				CHANNELS 3 Zrotation Yrotation Xrotation
				JOINT Neck
				{
					OFFSET -0.002778 0.213870 -0.042857
					CHANNELS 3 Zrotation Yrotation Xrotation
					JOINT Head
					{
						OFFSET 0.005152 0.064970 0.051349
						CHANNELS 3 Zrotation Yrotation Xrotation
						End Site
						{
							OFFSET 0.000000 0.000000 0.000000
						}
					}
				}
				JOINT LeftShoulder
				{
					OFFSET 0.078845 0.121749 -0.034090
					CHANNELS 3 Zrotation Yrotation Xrotation
					JOINT LeftArm
					{
						OFFSET 0.090977 0.030469 -0.008868
						CHANNELS 3 Zrotation Yrotation Xrotation
						JOINT LeftForeArm
						{
							OFFSET 0.259612 -0.012772 -0.027456
							CHANNELS 3 Zrotation Yrotation Xrotation
							JOINT LeftHand
							{
								OFFSET 0.249234 0.008986 -0.001171
								CHANNELS 3 Zrotation Yrotation Xrotation
								End Site
								{
									OFFSET 0.000000 0.000000 0.000000
								}
							}
						}
					}
				}
				JOINT RightShoulder
				{
					OFFSET -0.081759 0.118833 -0.038615
					CHANNELS 3 Zrotation Yrotation Xrotation
					JOINT RightArm
					{
						OFFSET -0.096012 0.032551 -0.009143
						CHANNELS 3 Zrotation Yrotation Xrotation
						JOINT RightForeArm
						{
							OFFSET -0.253742 -0.013329 -0.021401
							CHANNELS 3 Zrotation Yrotation Xrotation
							JOINT RightHand
							{
								OFFSET -0.255298 0.007772 -0.005559
								CHANNELS 3 Zrotation Yrotation Xrotation
								End Site
								{
									OFFSET 0.000000 0.000000 0.000000
								}
							}
						}
					}
				}
			}
		}
	}
}
MOTION
Frames: 16
Frame Time: 0.050000
0.000000 0.938369 0.000000 -1.097386 -11.076844 5.456881 4.348945 -0.110491 -1.696880 -0.349351 0.145634 -3.369891 1.675855 4.712508 4.935958 0.000000 0.000000 0.000000 -4.363459 0.524107 -4.536605 -0.371873 0.045553 0.291566 0.808410 -1.519132 5.345728 0.000000 0.000000 0.000000 4.679435 -0.013842 -1.121523 -3.498000 1.507405 -3.930210 -1.067912 3.573327 7.009270 5.540277 -2.241923 -18.022960 0.000000 0.000000 0.000000 -20.110281 -2.562378 0.184737 -50.835901 -7.373692 -3.316166 -6.298513 -22.543032 2.237397 0.000000 0.000000 0.000000 17.007999 -4.214896 -4.210930 53.794135 0.404219 -5.152922 7.941476 28.331205 2.682142 0.000000 0.000000 0.000000 
-0.001236 0.937422 0.000940 -1.239920 -11.306957 5.903574 4.509395 -0.088489 -1.287657 -0.270987 0.188117 -4.781097 1.203646 3.774631 4.908469 0.000000 0.000000 0.000000 -3.992859 0.572256 -5.317936 -0.974424 0.113936 0.632525 0.722853 -1.875067 5.591698 0.000000 0.000000 0.000000 4.951018 0.019278 -1.582661 -3.391414 1.468266 -3.656998 -1.986719 3.874690 6.531231 6.834448 -2.780571 -19.237485 0.000000 0.000000 0.000000 -19.646555 -2.397532 0.008215 -51.737986 -7.611862 -3.196980 -6.645761 -22.689807 2.311863 0.000000 0.000000 0.000000 17.070763 -4.932413 -4.521828 55.076590 -0.652427 -5.729089 8.313811 29.221687 2.888885 0.000000 0.000000 0.000000 
-0.002374 0.936912 0.001723 -0.790924 -10.409696 5.533381 4.346357 -0.131009 -1.925793 -0.367032 0.122638 -2.602855 1.069252 3.195284 3.383757 0.000000 0.000000 0.000000 -4.175829 0.557314 -5.164987 -0.911231 0.157789 1.560187 -0.434419 -3.571697 4.173482 0.000000 0.000000 0.000000 4.716603 -0.022590 -1.067240 -2.852828 1.212876 -4.594738 -2.351973 3.733715 6.983830 6.435230 -2.578291 -18.870355 0.000000 0.000000 0.000000 -19.680670 -3.151685 0.342190 -51.926625 -7.927685 -3.100538 -6.390165 -21.340120 2.100981 0.000000 0.000000 0.000000 17.247439 -4.691167 -4.340596 55.874718 -1.441127 -6.239836 8.256106 30.339592 3.039354 0.000000 0.000000 0.000000 
-0.003528 0.935939 0.002356 -0.641570 -10.335725 5.880512 4.833599 -0.147126 -2.317063 -0.947375 0.198781 -3.163380 0.684187 2.644898 4.238350 0.000000 0.000000 0.000000 -4.463120 0.613352 -5.900247 -0.768034 0.176751 2.187439 -0.773890 -4.455222 4.419431 0.000000 0.000000 0.000000 4.722123 0.003971 -1.436379 -2.856229 1.235784 -3.874755 -2.582444 3.828107 6.248677 6.746603 -2.751957 -18.529082 0.000000 0.000000 0.000000 -19.862796 -3.238261 0.284473 -52.008899 -8.249209 -2.871202 -6.383291 -21.412675 2.089679 0.000000 0.000000 0.000000 16.965839 -4.871246 -4.349961 56.558048 -1.910319 -6.469342 9.938546 32.416096 3.742242 0.000000 0.000000 0.000000 
-0.004727 0.935935 0.002600 -0.503011 -9.860707 5.499507 4.511931 -0.169481 -2.619562 -0.475489 0.123721 -2.266652 0.877303 3.017775 4.116267 0.000000 0.000000 0.000000 -4.525063 0.581899 -5.511200 -0.529756 0.169355 2.523777 -1.311767 -5.586128 4.367629 0.000000 0.000000 0.000000 4.914338 -0.037583 -0.931205 -2.893588 1.261105 -3.728148 -2.586673 3.804729 6.071592 6.181817 -2.399578 -18.501981 0.000000 0.000000 0.000000 -20.068274 -3.550709 0.372535 -51.770502 -8.481334 -2.739667 -6.656049 -21.065856 2.090885 0.000000 0.000000 0.000000 16.799664 -5.118283 -4.398763 56.806353 -1.785081 -6.434459 11.859061 36.071955 4.842291 0.000000 0.000000 0.000000 
-0.005749 0.935835 0.002366 -0.422861 -9.405479 5.425273 4.346374 -0.185876 -2.790774 -0.302926 0.104782 -2.253318 0.921019 3.099076 4.012708 0.000000 0.000000 0.000000 -4.815426 0.580049 -5.478727 -0.226825 0.141137 2.615735 -1.516846 -6.201211 4.778268 0.000000 0.000000 0.000000 4.848414 -0.069631 -0.554424 -2.787822 1.214746 -3.901878 -2.511466 3.882287 6.370822 6.027916 -2.239431 -18.858901 0.000000 0.000000 0.000000 -20.261187 -3.593983 0.314955 -51.939822 -8.755437 -2.639778 -6.822117 -20.988830 2.105457 0.000000 0.000000 0.000000 16.736470 -4.798101 -4.156780 57.531609 -2.059184 -6.685685 14.797033 41.036907 6.736591 0.000000 0.000000 0.000000 
-0.006617 0.935958 0.001621 -0.436617 -9.173785 5.413902 4.222586 -0.233392 -3.592201 -0.007906 0.055400 -1.705357 1.175454 3.786331 4.722405 0.000000 0.000000 0.000000 -4.512665 0.573784 -5.480337 -0.633273 0.198578 2.869145 -1.576655 -6.256167 4.633768 0.000000 0.000000 0.000000 4.935411 -0.112478 -0.081380 -2.865581 1.254776 -3.753425 -2.445891 3.589891 6.204937 5.718871 -2.054973 -19.019066 0.000000 0.000000 0.000000 -20.060370 -3.673802 0.408873 -52.286155 -8.805653 -2.621570 -7.019496 -21.070683 2.155397 0.000000 0.000000 0.000000 16.831954 -4.854598 -4.239207 58.261609 -1.992092 -6.733420 18.541154 47.771253 9.650392 0.000000 0.000000 0.000000 
-0.007357 0.936198 0.000591 -0.402007 -8.963924 5.358518 4.460805 -0.257246 -4.183492 -0.162225 0.047672 -0.898836 1.283687 3.982882 4.624223 0.000000 0.000000 0.000000 -4.278585 0.590057 -5.807607 -0.754291 0.260459 3.755858 -1.691801 -6.204791 3.977440 0.000000 0.000000 0.000000 4.881305 -0.144286 0.306397 -2.838766 1.248675 -3.628825 -2.558888 3.565752 6.431167 5.961292 -2.144128 -19.354170 0.000000 0.000000 0.000000 -19.096408 -4.030002 0.623497 -52.646711 -9.153385 -2.488027 -7.718981 -21.459289 2.324405 0.000000 0.000000 0.000000 17.001263 -4.259819 -3.929355 58.695806 -0.573750 -6.123936 24.287138 54.586398 14.369167 0.000000 0.000000 0.000000 
-0.007988 0.936720 -0.000565 -0.658764 -9.022931 5.522929 4.672362 -0.271985 -4.635504 -0.105386 0.034826 -0.692549 1.404287 4.337753 5.154024 0.000000 0.000000 0.000000 -3.728487 0.586175 -5.802727 -0.974712 0.277401 3.587312 -1.638128 -6.055657 3.902642 0.000000 0.000000 0.000000 5.098884 -0.190094 0.748466 -2.939918 1.290591 -3.678766 -2.521275 3.859472 6.653565 6.238261 -2.255623 -19.546985 0.000000 0.000000 0.000000 -18.304668 -4.322035 0.762782 -53.384264 -9.306421 -2.448824 -7.948212 -22.198088 2.448206 0.000000 0.000000 0.000000 16.994758 -3.633357 -3.547821 58.428919 1.825995 -4.951141 32.394096 60.474732 21.284666 0.000000 0.000000 0.000000 
-0.008428 0.936913 -0.001779 -0.836459 -9.462285 5.508593 4.841100 -0.279081 -5.070949 -0.212796 0.029157 -0.030258 1.467623 4.461606 5.284371 0.000000 0.000000 0.000000 -3.361022 0.612604 -6.178186 -1.180170 0.342924 4.271460 -1.692512 -5.937063 3.346711 0.000000 0.000000 0.000000 5.541892 -0.219934 0.968555 -3.165944 1.389897 -3.522830 -2.942374 4.419545 6.951749 6.877638 -2.552133 -19.804031 0.000000 0.000000 0.000000 -17.536202 -4.690591 0.908576 -53.806402 -9.616597 -2.342558 -7.677175 -22.763201 2.448057 0.000000 0.000000 0.000000 16.791742 -2.222617 -2.699031 58.328151 5.971921 -2.965407 39.297492 65.256723 28.297252 0.000000 0.000000 0.000000 
-0.008436 0.936596 -0.003274 -0.851739 -9.708356 5.436568 5.099057 -0.285180 -5.587752 -0.512407 0.049468 0.715011 1.601572 4.687786 5.212554 0.000000 0.000000 0.000000 -3.309758 0.625445 -6.345320 -1.292167 0.376421 4.584664 -1.589426 -5.732448 3.383463 0.000000 0.000000 0.000000 5.610529 -0.282122 1.658235 -3.640599 1.590864 -3.693785 -2.789540 5.404554 7.103250 7.094460 -2.599631 -19.720531 0.000000 0.000000 0.000000 -17.106616 -5.473491 1.145000 -53.991158 -9.722335 -2.291728 -7.274960 -23.552536 2.419647 0.000000 0.000000 0.000000 16.765233 -1.002622 -1.881497 57.865770 10.864984 -0.580215 44.483425 68.300539 34.152538 0.000000 0.000000 0.000000 
-0.007981 0.936558 -0.005328 -0.915589 -9.750034 5.464508 5.094838 -0.320607 -6.513511 -0.430441 0.015242 1.753944 1.365019 4.209593 5.138351 0.000000 0.000000 0.000000 -3.054128 0.656863 -6.756939 -1.745901 0.476976 5.213831 -1.855516 -6.405785 3.531115 0.000000 0.000000 0.000000 5.975915 -0.363608 2.422358 -4.211435 1.855764 -3.367348 -2.800222 6.127919 7.180476 7.575962 -2.772724 -19.886196 0.000000 0.000000 0.000000 -17.139613 -5.756730 1.122529 -53.950877 -10.405700 -1.968901 -6.616724 -24.418710 2.340392 0.000000 0.000000 0.000000 16.273705 0.700330 -0.800378 57.477365 16.729225 2.294489 42.518908 70.844609 34.609365 0.000000 0.000000 0.000000 
-0.007126 0.936199 -0.007944 -1.011744 -9.744283 5.374544 5.439674 -0.327123 -7.321825 -0.920871 0.066127 2.964888 1.539007 4.464481 4.782604 0.000000 0.000000 0.000000 -3.068911 0.688281 -7.161412 -1.549489 0.476846 5.601012 -1.614199 -6.098051 4.009610 0.000000 0.000000 0.000000 5.959767 -0.466330 3.596445 -4.624186 2.040029 -3.365516 -2.465814 7.367559 7.445963 8.279594 -2.996032 -20.215978 0.000000 0.000000 0.000000 -17.208184 -6.424992 1.181702 -54.417889 -10.865580 -1.757169 -6.329498 -25.613428 2.336533 0.000000 0.000000 0.000000 15.895668 2.659479 0.495664 56.907717 22.481295 5.104448 34.723429 72.065998 29.884390 0.000000 0.000000 0.000000 
-0.006121 0.936209 -0.010747 -1.330010 -9.261192 5.320452 5.883969 -0.337785 -8.536684 -1.192869 0.087194 4.628588 1.142500 3.663772 4.545696 0.000000 0.000000 0.000000 -2.855730 0.686060 -7.152303 -1.632380 0.524547 6.139662 -1.882907 -6.765424 4.217367 0.000000 0.000000 0.000000 6.201745 -0.574172 4.672878 -4.989610 2.214878 -3.230908 -2.069571 8.189647 7.547895 8.529201 -2.946014 -20.673694 0.000000 0.000000 0.000000 -17.247512 -6.609719 1.023060 -54.672787 -11.328850 -1.517899 -6.085317 -26.668736 2.320365 0.000000 0.000000 0.000000 14.875646 4.206252 1.522013 56.451789 28.104999 7.950161 24.538912 71.618985 22.397430 0.000000 0.000000 0.000000 
-0.004956 0.936457 -0.013020 -1.411604 -8.668893 5.468884 6.086145 -0.363876 -9.669526 -1.635562 0.150172 5.924922 1.050038 3.403804 4.122034 0.000000 0.000000 0.000000 -3.094590 0.701830 -7.380351 -1.381926 0.500663 6.342814 -1.774409 -6.577351 4.386250 0.000000 0.000000 0.000000 6.338233 -0.642722 5.279251 -5.279823 2.358273 -3.023265 -1.964420 9.428629 7.757079 8.845274 -2.864069 -21.176798 0.000000 0.000000 0.000000 -16.755242 -7.092588 0.936624 -55.163370 -11.499494 -1.431415 -5.399356 -28.269440 2.189636 0.000000 0.000000 0.000000 14.233003 5.665444 2.574790 56.205478 31.979619 9.975039 16.845617 71.051887 17.120976 0.000000 0.000000 0.000000 
-0.003689 0.936583 -0.014648 -1.774977 -7.937948 5.621093 6.727152 -0.349242 -10.951570 -2.238645 0.251631 7.209805 1.025921 3.310270 3.825652 0.000000 0.000000 0.000000 -3.237267 0.716779 -7.612178 -1.031931 0.483405 6.918064 -2.066435 -7.260628 4.565660 0.000000 0.000000 0.000000 6.457251 -0.719132 5.961941 -5.659710 2.510041 -3.430189 -1.389381 10.268568 8.540174 9.062614 -2.741958 -21.939382 0.000000 0.000000 0.000000 -16.588577 -8.076226 1.204770 -55.605909 -11.755155 -1.365697 -3.605062 -30.327015 1.798635 0.000000 0.000000 0.000000 14.251523 7.264558 3.633531 55.069688 36.004791 11.764924 10.156246 70.991821 12.677028 0.000000 0.000000 0.000000 
